<?xml version="1.0" encoding="utf-8"?>
<!-- Generator: Adobe Illustrator 25.4.1, SVG Export Plug-In . SVG Version: 6.00 Build 0)  -->
<svg version="1.1" id="katman_1" xmlns="http://www.w3.org/2000/svg" xmlns:xlink="http://www.w3.org/1999/xlink" x="0px" y="0px"
	 viewBox="0 0 1024 1024" style="enable-background:new 0 0 1024 1024;" xml:space="preserve">
<style type="text/css">
	.st0{fill:#012169;}
</style>
<path class="st0" d="M1014.11,423.36c-8.6-26.08-23.5-48.28-43.92-66.77C857.16,254.2,744.09,151.86,631.17,49.34
	C596.46,17.82,556.38-0.01,509.04,0.77C466.68,1.46,429.5,16.6,398.25,44.8C283.53,148.3,169.1,252.12,54.68,355.96
	c-29.41,26.69-46.82,60-52.86,99.23c-0.34,2.24-1.2,4.4-1.82,6.6c0,136.42,0,272.83,0,409.25c1.89,7.98,3.35,16.09,5.75,23.92
	c21.47,70.18,67.74,112.92,140.6,126.09c1.93,0.35,3.77,1.13,5.66,1.72c240.67,0,481.33,0,722,0c13.36-3.55,27.28-5.74,39.99-10.88
	c62.87-25.44,96.36-74.03,107.94-139.31c0.57-3.19,1.37-6.34,2.07-9.51c0-133.75,0-267.51,0-401.26
	C1020.76,448.97,1018.25,435.9,1014.11,423.36z M796.3,628.66c-5.26,0.7-10.63,0.81-15.95,0.82c-62.98,0.05-125.95,0.02-188.93,0.04
	c-16.26,0-19.38,3.07-19.39,19.03c-0.02,32.59-0.01,65.19-0.01,97.78c-0.01,32.26,0.42,64.53-0.11,96.78
	c-0.72,43.99-40.37,72.56-80.38,57.89c-22.97-8.42-36.2-25.6-38.81-49.87c-1.31-12.18-0.7-24.58-0.71-36.88
	c-0.06-55.54-0.01-111.09-0.03-166.63c-0.01-14.66-3.48-18.1-18.31-18.1c-64.64-0.02-129.28,0.13-193.93-0.06
	c-33.91-0.1-58.71-20.91-62.98-52.12c-4.44-32.46,18.78-62.74,51.44-66.87c5.27-0.67,10.63-0.75,15.96-0.76
	c62.98-0.05,125.95-0.02,188.93-0.04c15.58,0,18.88-3.24,18.89-18.53c0.02-64.19-0.09-128.38,0.05-192.57
	c0.07-34.14,20.34-58.88,51.49-63.49c32.5-4.81,63.15,17.98,67.63,50.49c0.77,5.57,0.85,11.27,0.86,16.92
	c0.06,62.86,0.02,125.72,0.04,188.58c0,15.37,3.27,18.6,18.81,18.6c64.31,0.02,128.62-0.1,192.93,0.05
	c34.08,0.08,58.94,20.55,63.4,51.64C851.83,593.84,828.88,624.3,796.3,628.66z"/>
</svg>
