<?xml version="1.0" encoding="utf-8"?>
<!-- Generator: Adobe Illustrator 25.4.1, SVG Export Plug-In . SVG Version: 6.00 Build 0)  -->
<svg version="1.1" id="katman_1" xmlns="http://www.w3.org/2000/svg" xmlns:xlink="http://www.w3.org/1999/xlink" x="0px" y="0px"
	 viewBox="0 0 1024 1024" style="enable-background:new 0 0 1024 1024;" xml:space="preserve">
<style type="text/css">
	.st0{fill:#012169;}
</style>
<g>
	<path class="st0" d="M873.23,1024c-240.73,0-481.46,0-722.19,0c-1.88-0.58-3.73-1.37-5.66-1.72
		C72.51,1009.09,26.23,966.27,4.75,895.95c-2.4-7.84-3.86-15.97-5.75-23.96c0-136.68,0-273.35,0-410.03
		c0.59-1.87,1.44-3.7,1.72-5.62c5.98-41.24,25.03-75.3,55.82-103.2C168.92,251.34,281.02,149.23,393.55,47.59
		c71.07-64.2,164.68-63.94,235.83,0.42c111.71,101.05,222.94,202.63,334.8,303.52c40.14,36.21,59.3,80.65,59.17,134.38
		c-0.28,117.97-0.04,235.95-0.18,353.92c-0.01,10.96-0.29,22.07-2.08,32.85c-10.95,65.81-44.63,114.68-107.73,140.35
		C900.61,1018.22,886.64,1020.42,873.23,1024z M782.42,663.79c-2.35-2.2-4.18-4.07-6.18-5.74c-7.68-6.4-15.56-12.56-23.09-19.14
		c-42.26-36.88-42.09-101.58,0.36-138.21c9.5-8.19,19.28-16.06,29.16-24.26c-18.64-32.22-36.73-63.49-54.85-94.83
		c-12.7,4.71-24.14,9.23-35.77,13.2c-52.85,18.04-108.28-13.65-119.35-68.21c-2.12-10.44-3.97-20.96-5.38-31.51
		c-0.73-5.45-2.98-7.14-8.39-7.1c-32,0.21-64.01-0.04-96.01,0.39c-2.61,0.04-6.79,3.63-7.45,6.26c-2.33,9.34-3.24,19.03-5.07,28.51
		c-11.43,59.23-67.88,91.06-124.36,70.2c-10.48-3.87-20.96-7.74-31.64-11.69c-18.49,32.04-36.43,63.12-54.64,94.66
		c2.91,2.52,5.19,4.95,7.88,6.75c71.93,47.92,70.22,127.26,0.38,173.46c-2.93,1.94-5.39,4.59-8.29,7.11
		c18.56,32.1,36.64,63.37,54.75,94.7c12.42-4.61,23.59-8.9,34.85-12.9c52.92-18.81,109.08,12.89,120.25,67.92
		c2.12,10.44,3.98,20.95,5.38,31.51c0.73,5.49,3.04,7.11,8.42,7.07c32-0.21,64.01,0.05,96.01-0.39c2.6-0.04,6.72-3.63,7.43-6.29
		c2.2-8.34,3.08-17.02,4.52-25.56c10.36-61.52,67.37-94.5,125.85-72.8c10.16,3.77,20.33,7.52,30.7,11.36
		C746.38,726.23,764.32,695.15,782.42,663.79z"/>
	<path class="st0" d="M639.78,569.85c0.07,71.31-57.74,128.99-129.03,128.76c-70.94-0.23-128.2-57.62-128.26-128.53
		c-0.06-71.32,57.73-128.97,129.03-128.74C582.48,441.55,639.71,498.9,639.78,569.85z"/>
</g>
</svg>
