<?xml version="1.0" encoding="iso-8859-1"?>
<!-- Generator: Adobe Illustrator 19.0.0, SVG Export Plug-In . SVG Version: 6.00 Build 0)  -->
<svg version="1.1" id="Capa_1" xmlns="http://www.w3.org/2000/svg" xmlns:xlink="http://www.w3.org/1999/xlink" x="0px" y="0px"
	 viewBox="0 0 489.875 489.875" style="enable-background:new 0 0 489.875 489.875;" xml:space="preserve">
<g>
	<path d="M212.637,79.125l67.8-67.8c15.1-15.1,39.7-15.1,54.8,0l67.8,67.8H212.637z M240.738,15.525h-97.3
		c-21.4,0-38.8,17.4-38.8,38.8v24.8h72.5L240.738,15.525z M381.737,413.425h-68.8l-62.7,62.7h94.1c20.7,0,37.5-16.8,37.5-37.5
		L381.737,413.425z M151.538,478.925c14.6,14.6,38.4,14.6,53,0l65.5-65.5h-184L151.538,478.925z M368.538,223.025
		c-13,0-23.5,10.5-23.5,23.5c0,13,10.5,23.5,23.5,23.5s23.5-10.5,23.5-23.5C392.038,233.525,381.438,223.025,368.538,223.025z
		 M121.337,223.025c-13,0-23.5,10.5-23.5,23.5c0,13,10.5,23.5,23.5,23.5s23.5-10.5,23.5-23.5
		C144.938,233.525,134.337,223.025,121.337,223.025z M468.638,146.525v199.5c0,21.4-17.4,38.8-38.8,38.8h-369.8
		c-21.4,0-38.8-17.4-38.8-38.8v-199.5c0-21.4,17.4-38.8,38.8-38.8h369.9C451.237,107.725,468.638,125.125,468.638,146.525z
		 M435.538,188.425c-3.1,0.8-6.4,1.2-9.7,1.2c-21.7,0-39.2-17.6-39.2-39.2c0-3.3,0.4-6.5,1.2-9.6h-288c0.4,2.3,0.7,4.8,0.7,7.2
		c0,21.7-17.6,39.2-39.2,39.2c-2.4,0-4.7-0.2-6.9-0.6v119.2c2.2-0.4,4.5-0.6,6.9-0.6c21.7,0,39.2,17.6,39.2,39.2
		c0,2.5-0.2,4.9-0.7,7.2h287.1c-0.2-1.6-0.3-3.2-0.3-4.9c0-21.7,17.6-39.2,39.2-39.2c3.4,0,6.6,0.4,9.7,1.2L435.538,188.425
		L435.538,188.425z M329.837,246.225c0,46.9-38,84.9-84.9,84.9s-84.9-38-84.9-84.9s38-84.9,84.9-84.9
		S329.837,199.325,329.837,246.225z M236.938,224.225c0-3,0.8-5.5,2.3-7.4s3.8-2.9,7-2.9c3.1,0,5.6,1.2,7.4,3.6
		c1.5,1.9,2.4,4.6,2.7,8c0.1,1.6,1.6,2.7,3.1,2.7l15.9-0.2c1.7,0,3.2-1.5,3.1-3.2c-0.4-6.9-2.7-12.8-6.7-17.5
		c-4.2-4.9-9.8-8-16.7-9.4v-12c0-1.5-1.2-2.7-2.7-2.7h-9.7c-1.5,0-2.7,1.2-2.7,2.7v11.6c-7.4,1.1-13.3,3.8-17.9,8.2
		c-5,4.8-7.6,11-7.6,18.5c0,8.3,2.4,14.5,7.1,18.8c4.8,4.3,12.4,8.5,22.8,12.6c4.3,1.9,7.3,3.7,9,5.7c1.7,1.9,2.5,4.6,2.5,8.1
		c0,3-0.8,5.4-2.5,7.3c-1.6,1.9-4,2.8-7.2,2.8c-3.8,0-6.9-1.2-9.3-3.6c-2-2-3.1-5-3.5-9.1c-0.1-1.6-1.6-2.8-3.1-2.7l-15.9,0.3
		c-1.7,0-3.2,1.5-3.1,3.2c0.4,8.4,3.1,14.9,8.2,19.5c5.5,5,12.3,7.9,20.4,8.9v10.9c0,1.5,1.2,2.7,2.7,2.7h9.7c1.5,0,2.7-1.2,2.7-2.7
		v-11.2c6.5-1.2,11.9-3.8,16-7.8c4.8-4.7,7.3-10.9,7.3-18.6c0-8.1-2.4-14.3-7.2-18.7c-4.8-4.4-12.4-8.7-22.6-13.1
		c-4.4-1.9-7.4-3.9-9.1-5.8C237.837,229.725,236.938,227.225,236.938,224.225z"/>
</g>
<g>
</g>
<g>
</g>
<g>
</g>
<g>
</g>
<g>
</g>
<g>
</g>
<g>
</g>
<g>
</g>
<g>
</g>
<g>
</g>
<g>
</g>
<g>
</g>
<g>
</g>
<g>
</g>
<g>
</g>
</svg>
