<?xml version="1.0" standalone="no"?>
<!DOCTYPE svg PUBLIC "-//W3C//DTD SVG 20010904//EN"
 "http://www.w3.org/TR/2001/REC-SVG-20010904/DTD/svg10.dtd">
<svg version="1.0" xmlns="http://www.w3.org/2000/svg"
 width="81.000000pt" height="81.000000pt" viewBox="0 0 81.000000 81.000000"
 preserveAspectRatio="xMidYMid meet">

<g transform="translate(0.000000,81.000000) scale(0.100000,-0.100000)"
fill="#000000" stroke="none">
<path d="M70 725 c-34 -35 -36 -62 -2 -32 10 10 22 17 25 17 4 0 7 -126 7
-280 0 -267 1 -281 20 -300 19 -19 33 -20 302 -20 l281 0 -23 -25 c-13 -14
-20 -28 -17 -32 9 -8 77 56 77 72 0 15 -53 65 -68 65 -19 0 -14 -19 8 -32 11
-7 20 -16 20 -20 0 -5 -123 -8 -273 -8 -253 0 -275 1 -290 18 -15 16 -17 51
-17 290 0 245 5 304 24 257 6 -15 36 -21 36 -7 0 9 -63 72 -71 72 -3 0 -20
-16 -39 -35z"/>
<path d="M235 750 c-3 -5 -3 -10 2 -10 4 -1 105 0 223 0 181 0 219 -2 238 -15
22 -16 22 -19 22 -245 0 -142 4 -231 10 -235 12 -7 14 464 2 481 -19 29 -55
34 -271 34 -136 0 -222 -4 -226 -10z"/>
<path d="M539 599 c-7 -14 -8 -24 -1 -31 7 -7 14 -3 21 11 14 25 36 28 45 6 3
-9 -8 -31 -29 -54 -19 -21 -35 -44 -35 -50 0 -6 18 -11 45 -11 25 0 45 5 45
10 0 6 -11 10 -25 10 -14 0 -25 4 -25 8 0 5 11 19 25 32 43 40 28 90 -27 90
-18 0 -31 -7 -39 -21z"/>
<path d="M250 421 c0 -76 4 -132 10 -136 6 -4 10 31 10 99 0 107 10 136 45
136 35 0 45 -29 45 -136 0 -63 4 -104 10 -104 6 0 10 41 10 104 0 107 10 136
45 136 32 0 45 -42 45 -143 0 -63 4 -96 10 -92 17 11 12 207 -6 233 -17 24
-71 31 -92 10 -8 -8 -15 -8 -27 2 -9 8 -28 10 -50 7 -19 -3 -35 -2 -35 4 0 5
-4 9 -10 9 -6 0 -10 -50 -10 -129z"/>
</g>
</svg>
